<svg width="994" height="516" viewBox="0 0 994 516" fill="none" xmlns="http://www.w3.org/2000/svg">
<g clip-path="url(#clip0_2_25)">
<path d="M239.211 507.238L214.725 468.343L239.222 511.476L239.235 515.908C240.982 515.887 242.711 515.82 244.423 515.707L242.426 458.774L242.452 458.334L242.407 458.25L242.217 452.87L267.818 410.24L242.19 448.841L242.114 449.98L240.605 406.965L262.614 362.86L240.433 399.407L239.401 310.249L239.396 309.952L239.393 310.244L238.89 380.539L217.859 352.413L238.909 386.594L239.007 425.095L219.493 387.91L239.017 430.755L239.071 452.164L210.726 400.39L239.094 459.632L239.211 507.238Z" fill="#E2E2E2"/>
<path d="M449.329 507.239L424.844 468.343L449.341 511.476L449.354 515.908C451.101 515.887 452.83 515.82 454.541 515.707L452.544 458.774L452.571 458.334L452.525 458.25L452.335 452.87L477.937 410.24L452.309 448.841L452.232 449.98L450.724 406.965L472.733 362.86L450.552 399.407L449.52 310.249L449.515 309.952L449.511 310.244L449.009 380.539L427.978 352.413L449.028 386.594L449.125 425.095L429.611 387.91L449.136 430.755L449.19 452.164L420.844 400.39L449.212 459.632L449.329 507.239Z" fill="#E2E2E2"/>
<path d="M28.8924 509.74L11.2115 481.654L28.9006 512.8L28.91 516C30.1714 515.985 31.4201 515.937 32.656 515.855L31.2139 474.744L31.2328 474.426L31.2004 474.365L31.0631 470.481L49.55 439.698L31.044 467.571L30.9886 468.394L29.8992 437.333L45.7921 405.485L29.775 431.875L29.03 367.495L29.0265 367.28L29.024 367.491L28.6612 418.251L13.4747 397.941L28.6747 422.623L28.7452 450.425L14.6543 423.574L28.753 454.512L28.7919 469.971L8.32361 432.585L28.808 475.364L28.8924 509.74Z" fill="#E2E2E2"/>
<path d="M960.357 507.238L935.872 468.343L960.369 511.476L960.382 515.908C962.129 515.887 963.858 515.82 965.57 515.707L963.572 458.774L963.599 458.334L963.554 458.25L963.363 452.87L988.965 410.24L963.337 448.841L963.26 449.98L961.752 406.965L983.761 362.86L961.58 399.407L960.548 310.249L960.543 309.952L960.54 310.244L960.037 380.539L939.006 352.413L960.056 386.594L960.154 425.095L940.64 387.91L960.164 430.755L960.218 452.164L931.873 400.39L960.241 459.632L960.357 507.238Z" fill="#E2E2E2"/>
<path d="M296.313 448.515H428.398V442.912H296.313V448.515Z" fill="#1C76DA"/>
<path d="M289.596 442.912H421.682V437.31H289.596V442.912Z" fill="#1C76DA"/>
<path d="M297.432 437.31H429.518V431.708H297.432V437.31Z" fill="#1C76DA"/>
<path d="M310.864 431.708H442.95V426.105H310.864V431.708Z" fill="#1C76DA"/>
<path d="M198.479 433.941H203.065V401.348H198.479V433.941Z" fill="#3F3D56"/>
<path d="M198.469 400.935L200.194 405.189L369.9 336.24L368.176 331.987L198.469 400.935Z" fill="#3F3D56"/>
<path d="M113.637 482.6H153.536V466.992H113.637V482.6Z" fill="#3F3D56"/>
<path d="M117.306 498.208H314.047V480.764H117.306V498.208Z" fill="#3F3D56"/>
<path d="M149.637 489.486H196.874V430.039H161.561L149.637 460.021V489.486Z" fill="#E2E2E2"/>
<path d="M169.358 453.91H189.536V433.711H169.358V453.91Z" fill="white"/>
<path d="M154.223 454.139H167.065V433.941H161.561L154.223 454.139Z" fill="white"/>
<path d="M184.033 474.108H188.619V465.386H184.033V474.108Z" fill="#3F3D56"/>
<path d="M163.166 455.516H162.937C161.782 455.516 160.673 455.057 159.856 454.239C159.039 453.421 158.58 452.312 158.58 451.155C158.58 449.999 159.039 448.889 159.856 448.072C160.673 447.254 161.782 446.794 162.937 446.794H163.166V455.516Z" fill="#3F3D56"/>
<path d="M333.766 489.486H333.537C332.382 489.486 331.274 489.026 330.457 488.209C329.639 487.391 329.18 486.282 329.18 485.125C329.18 483.968 329.639 482.859 330.457 482.041C331.274 481.223 332.382 480.764 333.537 480.764H333.766V489.486Z" fill="#3F3D56"/>
<path d="M131.293 480.698C127.883 480.742 124.526 481.555 121.473 483.076C118.419 484.597 115.748 486.788 113.657 489.486H104.695L113.408 465.19L153.994 457.178L152.848 489.486H148.93C146.839 486.788 144.168 484.597 141.114 483.076C138.061 481.555 134.704 480.742 131.293 480.698Z" fill="#E2E2E2"/>
<path d="M130.835 515.193C141.853 515.193 150.784 506.252 150.784 495.224C150.784 484.196 141.853 475.255 130.835 475.255C119.817 475.255 110.886 484.196 110.886 495.224C110.886 506.252 119.817 515.193 130.835 515.193Z" fill="#3F3D56"/>
<path d="M130.835 505.734C136.634 505.734 141.334 501.028 141.334 495.224C141.334 489.42 136.634 484.714 130.835 484.714C125.036 484.714 120.335 489.42 120.335 495.224C120.335 501.028 125.036 505.734 130.835 505.734Z" fill="#E2E2E2"/>
<path d="M311.066 514.963C320.69 514.963 328.493 507.153 328.493 497.519C328.493 487.885 320.69 480.075 311.066 480.075C301.441 480.075 293.639 487.885 293.639 497.519C293.639 507.153 301.441 514.963 311.066 514.963Z" fill="#3F3D56"/>
<path d="M311.066 506.7C316.131 506.7 320.238 502.59 320.238 497.519C320.238 492.449 316.131 488.338 311.066 488.338C306 488.338 301.894 492.449 301.894 497.519C301.894 502.59 306 506.7 311.066 506.7Z" fill="#E2E2E2"/>
<path d="M195.498 491.322H205.128V421.776H195.498V491.322Z" fill="#3F3D56"/>
<path d="M195.498 482.83H333.996V478.698H195.498V482.83Z" fill="#3F3D56"/>
<path d="M160.415 456.893H165.001V455.057H160.415V456.893Z" fill="#3F3D56"/>
<path d="M363.117 448.48C363.074 448.432 363.041 448.376 363.021 448.314C363 448.253 362.994 448.188 363 448.123L369.325 388.255C369.337 388.142 369.39 388.038 369.474 387.963C369.558 387.887 369.666 387.845 369.779 387.844H369.781C369.894 387.844 370.003 387.886 370.087 387.961C370.171 388.036 370.224 388.139 370.237 388.251L377.077 447.995C377.085 448.059 377.079 448.124 377.059 448.185C377.04 448.246 377.008 448.303 376.965 448.351C376.923 448.4 376.871 448.438 376.812 448.465C376.754 448.492 376.69 448.506 376.626 448.506L363.461 448.631H363.456C363.393 448.631 363.329 448.617 363.271 448.591C363.212 448.565 363.16 448.528 363.117 448.48ZM369.8 392.495L363.967 447.707L376.108 447.593L369.8 392.495Z" fill="#3F3D56"/>
<path d="M113.492 465.544L113.707 465.626C114.788 466.035 115.662 466.857 116.137 467.911C116.612 468.965 116.649 470.165 116.241 471.247C115.832 472.329 115.01 473.204 113.957 473.68C112.904 474.155 111.705 474.193 110.624 473.784L110.41 473.702L113.492 465.544Z" fill="#3F3D56"/>
<path d="M367.703 399.053H372.289V332.032H367.703V399.053Z" fill="#3F3D56"/>
<path d="M200.772 408.693C204.318 408.693 207.192 405.816 207.192 402.267C207.192 398.717 204.318 395.84 200.772 395.84C197.226 395.84 194.351 398.717 194.351 402.267C194.351 405.816 197.226 408.693 200.772 408.693Z" fill="#3F3D56"/>
<path d="M210.121 478.767H342.207V473.165H210.121V478.767Z" fill="#1C76DA"/>
<path d="M217.957 473.165H350.042V467.562H217.957V473.165Z" fill="#1C76DA"/>
<path d="M212.36 468.683H344.446V463.08H212.36V468.683Z" fill="#1C76DA"/>
<path d="M220.196 463.08H352.281V457.478H220.196V463.08Z" fill="#1C76DA"/>
<path d="M427.977 136.967C432.186 136.962 436.255 138.48 439.435 141.241C441.947 140.554 444.582 140.438 447.144 140.902C449.266 137.82 452.317 135.498 455.851 134.275C459.385 133.052 463.217 132.992 466.788 134.104C470.358 135.216 473.48 137.442 475.696 140.457C477.913 143.471 479.108 147.116 479.108 150.859H410.83C411.667 146.929 413.826 143.405 416.947 140.876C420.068 138.348 423.962 136.968 427.977 136.967Z" fill="#E2E2E2"/>
<path d="M325.257 192.26C329.236 192.255 333.084 193.69 336.09 196.3C338.465 195.651 340.955 195.541 343.378 195.98C345.384 193.066 348.268 190.87 351.609 189.714C354.95 188.558 358.573 188.501 361.949 189.553C365.324 190.605 368.275 192.709 370.371 195.559C372.467 198.409 373.597 201.855 373.596 205.393H309.046C309.838 201.677 311.879 198.346 314.83 195.955C317.78 193.565 321.461 192.26 325.257 192.26Z" fill="#E2E2E2"/>
<path d="M222.558 101.063C226.698 101.059 230.701 102.551 233.829 105.267C236.3 104.591 238.891 104.478 241.412 104.934C243.499 101.902 246.5 99.6177 249.976 98.4147C253.453 97.2117 257.222 97.1529 260.734 98.247C264.246 99.3411 267.317 101.531 269.497 104.496C271.678 107.461 272.854 111.046 272.853 114.728H205.691C206.515 110.862 208.639 107.395 211.709 104.908C214.779 102.421 218.608 101.064 222.558 101.063Z" fill="#E2E2E2"/>
<path d="M666.023 274.72V414.672H720.396V272.776L707.774 273.228V244.592H698.619L697.111 181.17C700.805 178.76 703.405 173.037 703.405 166.355C703.409 164.436 703.186 162.524 702.74 160.658C704.488 158.765 705.56 156.344 705.787 153.776C706.014 151.207 705.383 148.636 703.994 146.465C705.156 147.481 706.508 148.256 707.971 148.745C709.434 149.234 710.98 149.427 712.519 149.313C714.057 149.199 715.558 148.781 716.934 148.082C718.309 147.383 719.533 146.417 720.532 145.241C721.532 144.064 722.289 142.701 722.758 141.23C723.227 139.759 723.399 138.209 723.265 136.671C723.131 135.132 722.693 133.636 721.977 132.268C721.26 130.901 720.279 129.689 719.091 128.704C721.089 127.966 722.847 126.694 724.173 125.027C725.499 123.359 726.344 121.36 726.615 119.245C726.886 117.131 726.573 114.983 725.71 113.035C724.847 111.086 723.467 109.411 721.72 108.193C719.973 106.974 717.926 106.258 715.8 106.122C713.675 105.986 711.554 106.435 709.666 107.421C707.778 108.407 706.196 109.893 705.093 111.715C703.989 113.538 703.405 115.629 703.405 117.76C703.405 117.931 703.41 118.101 703.417 118.269C701.818 117.78 700.131 117.641 698.473 117.862C696.815 118.083 695.224 118.659 693.808 119.55C692.391 120.441 691.183 121.626 690.265 123.026C689.347 124.426 688.741 126.007 688.487 127.662C687.034 126.796 685.411 126.258 683.729 126.084C682.047 125.91 680.348 126.104 678.748 126.653C677.149 127.202 675.688 128.093 674.468 129.264C673.247 130.435 672.296 131.858 671.68 133.434C671.063 135.01 670.797 136.702 670.9 138.391C671.002 140.08 671.47 141.727 672.272 143.217C673.074 144.707 674.191 146.004 675.544 147.019C676.897 148.033 678.455 148.741 680.108 149.093C680.106 149.178 680.102 149.262 680.102 149.347C681.184 152.616 682.561 155.779 684.217 158.797C683.408 161.234 683.002 163.787 683.015 166.355C683.015 173.037 685.615 178.76 689.309 181.169L687.8 244.592H678.646V274.269L666.023 274.72ZM699.976 141.085L700.006 141.086C700.175 141.086 700.341 141.08 700.507 141.073C700.612 141.418 700.732 141.755 700.868 142.085C700.59 141.735 700.292 141.401 699.976 141.085Z" fill="#E2E2E2"/>
<path d="M636.086 514.291H801.146V323.153H636.086V514.291Z" fill="#3F3D56"/>
<path d="M696.365 514.291H740.867V475.415H696.365V514.291Z" fill="#E2E2E2"/>
<path d="M581.077 71.6587C581.073 71.7999 581.066 71.9399 581.066 72.0817C581.063 74.6811 581.583 77.2545 582.595 79.6486C583.606 82.0427 585.089 84.2086 586.954 86.0174C587.245 86.6393 587.569 87.2453 587.924 87.8328C586.575 91.8939 585.898 96.1486 585.921 100.428C585.921 115.189 593.528 127.155 602.912 127.155C612.296 127.155 619.904 115.189 619.904 100.428C619.911 97.231 619.539 94.044 618.796 90.9342C621.71 87.7782 623.496 83.7439 623.874 79.4632C624.252 75.1826 623.201 70.8973 620.886 67.2784C622.822 68.9719 625.075 70.2635 627.514 71.0784C629.953 71.8932 632.529 72.215 635.094 72.0252C637.658 71.8353 640.159 71.1375 642.451 69.9723C644.744 68.8071 646.783 67.1977 648.449 65.2375C650.115 63.2773 651.376 61.0054 652.158 58.5535C652.94 56.1017 653.227 53.5188 653.004 50.9548C652.78 48.3908 652.051 45.8968 650.857 43.6174C649.662 41.3381 648.028 39.3188 646.048 37.6769C649.377 36.4469 652.307 34.3273 654.517 31.5481C656.728 28.7689 658.136 25.4365 658.587 21.9128C659.039 18.3892 658.517 14.809 657.079 11.5613C655.64 8.31363 653.34 5.52254 650.429 3.49126C647.517 1.45999 644.105 0.266212 640.563 0.0395978C637.021 -0.187017 633.485 0.562203 630.339 2.20587C627.192 3.84954 624.556 6.3248 622.716 9.36276C620.877 12.4007 619.904 15.8852 619.904 19.4378C619.904 19.7224 619.913 20.0047 619.925 20.2863C617.259 19.471 614.448 19.2396 611.685 19.6078C608.921 19.9759 606.269 20.935 603.909 22.42C601.548 23.9049 599.535 25.8808 598.005 28.2137C596.475 30.5465 595.464 33.1816 595.041 35.94C592.62 34.4978 589.913 33.6003 587.11 33.31C584.307 33.0197 581.475 33.3435 578.81 34.2589C576.144 35.1743 573.71 36.6594 571.675 38.6111C569.641 40.5628 568.055 42.9343 567.028 45.561C566.001 48.1877 565.558 51.0067 565.728 53.8222C565.899 56.6376 566.68 59.3822 568.016 61.8654C569.353 64.3485 571.214 66.5107 573.469 68.2019C575.724 69.893 578.32 71.0726 581.077 71.6587ZM614.24 58.3133C614.52 58.3133 614.798 58.3039 615.075 58.2921C615.25 58.8666 615.449 59.4291 615.675 59.9795C615.212 59.3957 614.716 58.8389 614.19 58.312L614.24 58.3133Z" fill="#E2E2E2"/>
<path d="M593.2 259.98H612.621L611.927 230.826V230.815L609.386 123.912C607.436 125.104 605.195 125.735 602.91 125.735C600.625 125.735 598.385 125.104 596.435 123.912L593.894 230.815V230.826L593.2 259.98Z" fill="#1C76DA"/>
<path d="M557.604 281.033V514.291H648.218V277.795L627.184 278.546V230.826H578.637V280.283L557.604 281.033Z" fill="#1C76DA"/>
<path d="M812.485 71.6587C812.481 71.7999 812.474 71.9399 812.474 72.0817C812.471 74.6811 812.991 77.2545 814.003 79.6486C815.014 82.0427 816.497 84.2086 818.362 86.0174C818.653 86.6393 818.977 87.2453 819.332 87.8328C817.983 91.8939 817.306 96.1486 817.329 100.428C817.329 115.189 824.936 127.155 834.32 127.155C843.704 127.155 851.312 115.189 851.312 100.428C851.319 97.231 850.947 94.044 850.204 90.9342C853.118 87.7782 854.904 83.7439 855.282 79.4632C855.66 75.1826 854.609 70.8973 852.294 67.2784C854.23 68.9719 856.483 70.2636 858.922 71.0785C861.361 71.8934 863.937 72.2152 866.502 72.0254C869.066 71.8355 871.567 71.1377 873.859 69.9725C876.152 68.8073 878.191 67.1979 879.857 65.2377C881.523 63.2775 882.784 61.0055 883.566 58.5536C884.348 56.1018 884.635 53.5189 884.412 50.9549C884.189 48.3909 883.459 45.8968 882.265 43.6174C881.07 41.3381 879.436 39.3188 877.456 37.6769C880.785 36.4469 883.715 34.3273 885.925 31.5481C888.136 28.7689 889.543 25.4365 889.995 21.9128C890.447 18.3892 889.925 14.809 888.487 11.5613C887.048 8.31363 884.748 5.52254 881.837 3.49126C878.925 1.45999 875.513 0.266213 871.971 0.0395979C868.429 -0.187017 864.893 0.562202 861.747 2.20587C858.6 3.84954 855.964 6.3248 854.124 9.36276C852.285 12.4007 851.312 15.8852 851.312 19.4378C851.312 19.7224 851.321 20.0047 851.333 20.2863C848.667 19.471 845.856 19.2396 843.093 19.6078C840.329 19.9759 837.677 20.935 835.317 22.42C832.956 23.9049 830.943 25.8808 829.413 28.2137C827.883 30.5465 826.872 33.1816 826.449 35.94C824.028 34.4978 821.321 33.6003 818.518 33.31C815.715 33.0197 812.883 33.3435 810.218 34.2589C807.552 35.1743 805.118 36.6594 803.083 38.6111C801.049 40.5628 799.463 42.9343 798.436 45.561C797.409 48.1877 796.966 51.0067 797.136 53.8222C797.307 56.6376 798.088 59.3822 799.424 61.8654C800.761 64.3485 802.622 66.5107 804.877 68.2019C807.132 69.893 809.728 71.0726 812.485 71.6587ZM845.648 58.3133C845.928 58.3133 846.206 58.3039 846.483 58.2921C846.658 58.8666 846.857 59.4291 847.083 59.9795C846.62 59.3957 846.124 58.8389 845.598 58.312L845.648 58.3133Z" fill="#E2E2E2"/>
<path d="M824.611 259.98H844.029L840.793 123.916C836.609 125.421 832.031 125.421 827.847 123.916L824.611 259.98Z" fill="#1C76DA"/>
<path d="M789.011 281.033V514.291H879.635V277.795L872.191 278.064L858.591 278.546V230.826H810.044V280.283L789.011 281.033Z" fill="#1C76DA"/>
<path d="M743.242 368.631H765.63V346.222H743.242V368.631Z" fill="white"/>
<path d="M707.422 368.631H729.81V346.222H707.422V368.631Z" fill="white"/>
<path d="M671.603 368.631H693.99V346.222H671.603V368.631Z" fill="white"/>
<path d="M743.242 404.486H765.63V382.076H743.242V404.486Z" fill="white"/>
<path d="M707.422 404.486H729.81V382.076H707.422V404.486Z" fill="white"/>
<path d="M671.603 404.486H693.99V382.076H671.603V404.486Z" fill="white"/>
<path d="M743.242 440.34H765.63V417.931H743.242V440.34Z" fill="white"/>
<path d="M707.422 440.34H729.81V417.931H707.422V440.34Z" fill="white"/>
<path d="M671.603 440.34H693.99V417.931H671.603V440.34Z" fill="white"/>
<path d="M591.718 359.667H614.106V337.258H591.718V359.667Z" fill="white"/>
<path d="M591.718 395.522H614.106V373.113H591.718V395.522Z" fill="white"/>
<path d="M591.718 431.377H614.106V408.967H591.718V431.377Z" fill="white"/>
<path d="M591.718 467.231H614.106V444.822H591.718V467.231Z" fill="white"/>
<path d="M822.94 359.667H845.327V337.258H822.94V359.667Z" fill="white"/>
<path d="M822.94 395.522H845.327V373.113H822.94V395.522Z" fill="white"/>
<path d="M822.94 431.377H845.327V408.967H822.94V431.377Z" fill="white"/>
<path d="M822.94 467.231H845.327V444.822H822.94V467.231Z" fill="white"/>
<path d="M994 513.501H0V515.742H994V513.501Z" fill="#3F3D56"/>
</g>
<defs>
<clipPath id="clip0_2_25">
<rect width="994" height="516" fill="white"/>
</clipPath>
</defs>
</svg>
